<?xml version="1.0" standalone="no"?>
<!DOCTYPE svg PUBLIC "-//W3C//DTD SVG 20010904//EN"
 "http://www.w3.org/TR/2001/REC-SVG-20010904/DTD/svg10.dtd">
<svg version="1.0" xmlns="http://www.w3.org/2000/svg"
 width="512.000000pt" height="512.000000pt" viewBox="0 0 512.000000 512.000000"
 preserveAspectRatio="xMidYMid meet">

<g transform="translate(0.000000,512.000000) scale(0.100000,-0.100000)"
fill="#000000" stroke="none">
<path d="M383 5106 c-181 -44 -334 -202 -372 -384 -8 -38 -11 -590 -11 -1900
0 -1612 2 -1855 15 -1911 41 -170 171 -309 345 -367 52 -18 138 -19 1805 -22
l1750 -3 255 -254 c258 -257 281 -274 336 -261 27 7 427 389 451 430 25 43 10
98 -40 145 l-26 23 48 38 c56 44 119 135 153 218 l23 57 0 558 0 559 -28 24
c-38 33 -96 33 -134 0 l-28 -24 -5 -544 -5 -543 -27 -50 c-14 -27 -44 -66 -65
-86 -76 -72 -39 -96 -419 282 l-342 341 -51 -3 -52 -3 -79 79 c-44 44 -80 83
-80 88 0 5 18 39 40 77 192 323 245 765 136 1140 -171 592 -694 1014 -1308
1059 -899 65 -1642 -678 -1577 -1577 59 -812 770 -1425 1580 -1361 232 18 453
88 651 206 l48 28 82 -82 83 -83 -4 -51 -3 -51 88 -84 88 -84 -1649 2 c-1569
3 -1652 4 -1683 21 -55 30 -112 88 -140 141 l-27 51 -3 1588 -2 1587 2360 0
2360 0 0 -635 c0 -548 2 -640 15 -665 25 -49 75 -63 130 -38 57 26 55 -11 55
977 0 626 -3 927 -11 963 -39 187 -200 348 -387 387 -81 17 -4268 14 -4339 -3z
m4358 -212 c60 -28 119 -87 150 -150 22 -46 24 -62 27 -236 l4 -188 -2361 0
-2361 0 0 163 c0 89 5 182 11 207 23 99 111 190 209 217 35 9 521 11 2160 10
l2115 -2 46 -21z m-1944 -1243 c454 -88 826 -413 973 -851 81 -239 81 -561 0
-800 -127 -377 -433 -683 -810 -810 -239 -81 -561 -81 -800 0 -377 127 -683
433 -810 810 -62 183 -79 444 -41 637 100 514 492 909 1006 1013 127 26 352
26 482 1z m955 -2443 l-72 -73 -75 75 -75 75 72 72 73 73 75 -75 75 -75 -73
-72z m858 -843 c-63 -63 -120 -115 -126 -115 -7 0 -170 156 -364 347 l-351
346 123 124 123 123 355 -355 355 -355 -115 -115z"/>
<path d="M551 4706 c-87 -48 -50 -186 49 -186 51 0 100 49 100 99 0 75 -83
124 -149 87z"/>
<path d="M1001 4706 c-87 -48 -50 -186 49 -186 51 0 100 49 100 99 0 75 -83
124 -149 87z"/>
<path d="M1451 4706 c-87 -48 -50 -186 49 -186 51 0 100 49 100 99 0 75 -83
124 -149 87z"/>
<path d="M3571 4706 c-67 -37 -65 -143 4 -174 19 -9 153 -12 495 -12 504 0
509 1 536 51 27 52 8 115 -41 137 -40 18 -961 16 -994 -2z"/>
<path d="M2351 3455 c-159 -36 -319 -108 -433 -194 -79 -61 -202 -189 -251
-263 -207 -314 -237 -719 -77 -1055 54 -114 110 -194 203 -290 133 -137 289
-231 482 -290 84 -25 102 -27 280 -27 219 -1 287 13 451 89 122 57 202 112
301 208 235 229 346 527 321 865 -18 245 -135 488 -321 669 -135 131 -284 218
-463 270 -77 22 -113 26 -259 29 -123 3 -188 0 -234 -11z m459 -220 c289 -92
491 -294 586 -585 26 -79 28 -97 28 -250 0 -159 -1 -168 -32 -260 -95 -283
-289 -477 -572 -572 -92 -31 -101 -32 -260 -32 -153 0 -171 2 -250 28 -288 94
-492 298 -586 586 -26 78 -28 98 -28 245 -1 188 9 236 85 390 80 163 196 287
348 373 152 85 270 113 456 108 119 -3 153 -7 225 -31z"/>
<path d="M2119 2876 c-14 -9 -32 -29 -39 -46 -25 -61 -11 -83 168 -262 l167
-168 -167 -167 c-128 -128 -169 -176 -174 -200 -16 -83 66 -149 139 -112 12 6
95 84 184 172 l163 162 167 -167 c104 -103 179 -169 196 -173 76 -19 141 46
122 123 -4 16 -70 91 -173 195 l-167 167 162 163 c88 89 166 172 172 184 37
73 -29 155 -112 139 -24 -5 -72 -46 -199 -174 l-168 -167 -168 168 c-152 152
-173 169 -208 173 -24 3 -49 -2 -65 -10z"/>
<path d="M4949 2491 c-40 -40 -40 -89 0 -133 25 -28 36 -33 72 -32 35 1 48 7
72 34 25 28 28 38 24 74 -12 84 -108 117 -168 57z"/>
</g>
</svg>
